<svg xmlns="http://www.w3.org/2000/svg" viewBox="0 0 2500 2500"><defs><style>.cls-1{fill:#fff}</style></defs><g id="Layer_2" data-name="Layer 2"><g id="Layer_1-2" data-name="Layer 1"><path class="cls-1" d="M1573.06 1382.5q-65.73-49.83-173.85-49.82H1036.7v415.52h356.15a445.05 445.05 0 0 0 93.28-9.53q44.52-9.55 78.44-31.81t54.06-60.42q20.14-38.16 20.15-97.52 0-116.61-65.72-166.42zM1520 1063.44q57.25-42.39 57.25-137.8 0-53-19.08-86.91t-50.88-53q-31.8-19.09-73.14-26.49a484.74 484.74 0 0 0-85.86-7.42H1036.7v354h337.07q89.05.02 146.23-42.38z"/><path class="cls-1" d="M2177.65 0H322.36C144.31 0 0 144.33 0 322.35v1855.29C0 2355.69 144.33 2500 322.35 2500h1855.29c178.06 0 322.36-144.33 322.36-322.35V322.36C2500 144.31 2355.67 0 2177.65 0zm-250.56 1766.22Q1882.57 1850 1807.31 1903t-171.71 78.4a773.88 773.88 0 0 1-198.22 25.44H703.86V493.16h712.31q108.12 0 197.16 19.08T1766 574.79q63.6 43.46 98.58 115.54t35 178.08q0 114.49-51.93 190.8t-153.71 125.08q139.92 40.28 208.83 141t68.9 242.73q-.06 114.46-44.58 198.2z"/></g></g></svg>