<svg xmlns="http://www.w3.org/2000/svg" viewBox="0 0 1766.69 2493.68"><defs><style>.cls-1{fill:#fff}</style></defs><g id="Layer_2" data-name="Layer 2"><g id="Layer_1-2" data-name="Layer 1"><path class="cls-1" d="M415.78 0h267.87v112H527.8v112h155.86v112H415.78zm321.45 0h267.87v97.41H849.25v19.48h155.85v224H737.24V238.64h155.85v-19.48H737.22V0zm321.45 0h267.87v97.41h-155.84v19.48h155.85v224h-267.88V238.64h155.85v-19.48h-155.84V0zM0 490.07l160.78 1803.32 721.48 200.29 723.48-200.57 160.95-1803zm1396.69 816.27l-5.39 59.39-52 582.27-3.32 37.37-452.64 125.45-1 .28-453.07-125.73-31-347.27h222l15.75 176.39L882.38 1881l.2-.05 246.68-66.58 25.68-286.84H388.41l-19.82-221.17h805.52l20.12-226.48H348.86l-20.1-221.17h1107.85z"/></g></g></svg>