<svg xmlns="http://www.w3.org/2000/svg" viewBox="0 0 1125.04 2498.42"><defs><style>.cls-1{fill:#fff}</style></defs><g id="Layer_2" data-name="Layer 2"><g id="Layer_1-2" data-name="Layer 1"><path class="cls-1" d="M154.72 1911.83l74.18 123.25 26.24 388c0 41.6 137.19 75.32 306.42 75.32S868 2464.71 868 2423.11l24-399.43 66.19-113s-150.64 61.63-402.85 61.63-400.62-60.48-400.62-60.48zM792.37 557.85L842.68 359l278.63-293.21-73.44-62.55-295 312.31-58.42 237.6q-66-2.21-131.95-2.2C251.85 551 0 586.37 0 630s251.85 79.1 562.52 79.1S1125 673.7 1125 630c0-32.12-136.55-59.8-332.63-72.15zM763.1 669.22s-10.9 2.44-43 2.58-54.83-.21-63.9-8.47c-2.44-2.22-3.77-6.62-3.76-9.6 0-5.68 4.05-9 9.19-11.11l4.85 7.61c-2.11.73-3.32 1.59-3.32 2.51 0 4.31 32.78 7.26 57.87 6.94s55.41-2.38 55.44-6.63c0-1.29-2.29-2.5-6.28-3.45l4.83-7.56c6.5 2 12.18 5.92 12.16 12.67 0 11.48-14.61 13.22-24.08 14.51z"/><path class="cls-1" d="M1120.76 66.37c7-8.09-3.63-28.79-23.75-46.22s-42.12-25-49.14-16.9 3.63 28.79 23.75 46.21 42.12 25 49.13 16.91m-266.17 1381.1c-6.6-63.53 139-155.55 101.61-158.49-80.42 4.6-120.45 94.25-160.91 188.14-14.83 34.41-65.57 181.15-98.84 163.09s43.13-138.72 64.55-210.38c-24.71 18.12-115.32 88.52-138.67 22.59-37.54 31.89-117.77 49.16-108.72-34.6-20 35.38-64.8 84.77-118.61 64.25-70.66-26.95 40.95-252 68.7-240.68s-5.6 62.63-14.34 82.54c-19.21 43.82-41.41 98.91-26.58 110.19 25.4 19.32 94.53-73.09 96.06-75.12 12.93-17.08 49.76-128.83 79.45-116s-74 160.37-35.26 189.65c7.82 5.91 39.83-3.64 59.3-24.71 12.6-13.63 8.26-43.81 50.26-143.95s79.42-224.85 108.19-215.35 5.06 73.5-5.27 97.36c-48.48 112-132.31 297-92.78 283s60.12-14.82 98.84-60.13 36.93-119.93 62.73-118.34 21.48 25.52 15.22 43.74c25.4-29.06 120.39-90.27 143.32-29.65 27.16 71.77-135.91 175.44-95.25 170.15 39.64-5.15 103.86-45.83 131.29-82.81l75.48-678.56s-75.95 62.85-559.14 62.85S3.93 674.7 3.93 674.7l64.26 619.36c34.11-96.94 115.1-293 242.77-286.44 58.07 3 135.6 114.82 69.19 118.61-28.11 1.6-31-55.82-64.25-64.25-24-6.09-57.46 13.44-79.07 34.6-43.1 42.18-135.8 208.61-123.55 291.58 15.61 105.78 146-36.76 168-79.08 15.53-29.81 26-118.13 60-108.86s-3 100.42-27.59 181c-27.67 90.49-42.21 185.95-76.89 175s21.81-127.79 19.77-148.26c-32.57 30.04-92.63 106.19-169.45 68.5L127 1861.08s106.06 83.8 425.57 83.8 429.5-82.5 429.5-82.5l49.55-445.48c-40.54 39.48-168.86 109.58-177.07 30.56"/></g></g></svg>