<svg xmlns="http://www.w3.org/2000/svg" viewBox="0 0 1771 2499.78"><defs><style>.cls-1{fill:#fff}</style></defs><g id="Layer_2" data-name="Layer 2"><g id="Layer_1-2" data-name="Layer 1"><path class="cls-1" d="M164.77 0h112.67v111.32h103.07V0h112.67v337.1H380.51V224.22H277.45V337.1H164.78V0zm476.58 111.79h-99.19V0h311.11v111.79H754V337.1H641.36zM902.64 0h117.48l72.27 118.45L1164.59 0h117.53v337.1h-112.21V170l-77.52 119.86h-1.93L1012.88 170v167.1H902.64V0zm435.55 0h112.7v225.67h158.45V337.1h-271.15zM0 491.27L161.17 2299l723.25 200.78 725.24-201.06L1771 491.27zm1434.82 429l-10.1 112.4-4.45 49.83H571.85l20.26 227h808l-5.41 59.54-52.1 583.69-3.33 37.46L885.5 2116l-1 .28-454.18-126.06-31.06-348.12h222.56l15.78 176.83 246.93 66.67.21-.05 247.26-66.76 25.73-287.54H389.35l-54.49-611-5.31-59.48h1110.57z"/></g></g></svg>