<svg xmlns="http://www.w3.org/2000/svg" viewBox="0 0 2500 2500"><g data-name="Layer 2"><path d="M0 0v2500h2500V0zm1360.49 1949.87c0 243.33-142.64 354.09-350.74 354.09-187.94 0-297-97.33-352.41-214.8l191.31-115.76c36.91 65.44 70.49 120.81 151 120.81 77.2 0 125.88-30.2 125.88-147.66v-798.81h234.93zM1916 2304c-218.15 0-359.12-104-427.92-240l191.29-110.75c50.36 82.24 115.81 142.65 231.59 142.65 97.35 0 159.42-48.67 159.42-115.8 0-80.55-63.77-109.08-171.17-156.05l-58.72-25.2c-169.5-72.14-281.93-162.76-281.93-354.07 0-176.21 134.25-310.47 344-310.47 149.36 0 256.76 52 333.95 188l-182.93 117.48c-40.28-72.16-83.9-100.68-151-100.68-68.81 0-112.44 43.63-112.44 100.68 0 70.48 43.63 99 144.32 142.66l58.73 25.17c199.71 85.6 312.14 172.85 312.14 369.18 0 211.41-166.13 327.2-389.33 327.2z" fill="#fff" data-name="Layer 1"/></g></svg>