<svg xmlns="http://www.w3.org/2000/svg" viewBox="0 0 2489.22 565.68"><defs><style>.cls-1{fill:#fff}</style></defs><g id="Layer_2" data-name="Layer 2"><g id="Layer_1-2" data-name="Layer 1"><path class="cls-1" d="M2384.7 41.81l104.51.58S2294.9 305.69 2279 327.15c-5.15 6.95-13 14.44-17 23.73-10 23.35-20.34 74.58-20.34 74.58l-95.63.48s14.88-53.4 14.27-81.84c-.54-24.85-13.22-49.66-20.34-74.58-7.19-25.23-17-74.59-17-74.59h98.32l13.72 54.25 149.7-207.37"/><path class="cls-1" d="M2186.79 97.34c19.29 11.63 31.13 75.77 31.13 75.77s-100.92 1.49-155.85 1.49h-47.46L1957 425.46h-88.14s54.85-272.63 67.8-322.05c4.2-16 28.75-13.26 70.21-13.26h66.21c42.75 0 92.72-5.46 113.74 7.19m-410.36 122.18s2.75-16.1-9.32-34.75c-10.31-15.9-19.83-19.6-47-20.44-76.58-2.41-75.09 54.35-75.09 54.35zm83.06-65c11.22 40.48-10.17 135.61-10.17 135.61s-111.71-1.86-172.89 0c-19 .58-41.8-2.07-47.46 6.78-8 12.4 2.91 31.5 12.13 39.56 10.61 9.29 31.29 10.34 38.72 11.29 49.66 6.31 153.6 1.63 153.6 1.63l-18 79.73s-146.88 7.37-220.35-10.17c-14.51-3.45-28.1-10.44-37.29-20.34-2.51-2.71-4.68-6.4-7.06-9.59-1.89-2.55-7.42-10.92-9.9-17.53-16.78-44.71 2-130.38 20.34-176.28 2.13-5.32 4.81-12.07 7.63-17.8 3.52-7.15 6.5-15.22 9.32-19.49 1.89-2.95 4.24-4.85 6.21-7.63a113.83 113.83 0 0 1 7.35-9.32c6.78-7.87 14.48-13.43 23.73-20.34 30.61-22.92 86-40.72 152.55-33.91 25.06 2.58 62.89 11.52 81.36 37.29 4.95 6.88 7.39 20.54 10.17 30.51zm-404.27-64.68l85.47-.5s-47.63 225.95-71.91 336.13h-98.32c-68.71 0-129.9 8.51-155.94-40.68-25.26-47.76-1.15-126.31 10.17-179.68 8-37.77 24.86-115 24.86-115l88.55-.81s-25 120.18-35.43 180.18c-3.73 21.49-11.42 41.73-3.39 57.62 7.63 15.13 18.31 16.21 50.85 17 10.31.24 44.07 0 44.07 0l61-254.26m-400 162.73c8.95-31.79 22-66.27 20.34-94.92-1.8-30.64-27.49-58.54-44.07-64.41-49.93-17.63-96.68 7-115.26 27.12-24 26-32.17 56.45-40.68 98.32-6.33 31.08-11.52 63.89 0 88.13 20.41 42.85 84 33.5 152.56 33.91 10.17-27.26 18.58-57.87 27.12-88.15zm118.66-125.43c9.76 71-27.69 149.34-53.5 217.47 26.31 2.38 49.36-.37 51 1.6 1.73 2.54-17.63 81.33-24.38 81.53-20.88.54-90.07 1.12-118.92 1.12C934 428.85 845.88 435 801 388.17c-18.24-19-30.85-51.64-33.91-74.59-5.08-38.31 1.29-80.48 10.17-115.26 8-31.4 18.34-61 33.9-88.15C850.69 41.13 919.51-10.13 1034.87 1.7c22.38 2.3 54.51 12.1 74.59 23.73 1.39.81 6.24 4.68 7.35 5.36 27.12 17.26 51.84 58.44 57.06 96.35zM757.33 90.25c-5.69 25.93-11.39 55.33-17.39 81H645c7.35-28.41 13-56.65 20.34-81.36 30.37 0 58.62.4 92 .4M641.63 194.94h91.54c-12 66.24-35.67 173.09-54.24 247.47-11.64 46.59-19.4 80.52-50.86 105.09-2.82 2.21-4.44 1.16-6.78 3.39-5.8 5.53-32.61 11.94-47.46 13.56-24.14 2.62-51.43.34-81.09-.27 7.76-28.37 16.55-62.45 23.46-87.88 72.31 8.75 74.14-59.6 88.14-125.43 8.1-38 32.65-140.69 37.29-155.94M428 367.83l-2 5.08C392.66 438 333.43 477.94 249 479.7c-39.49.81-77.12-9.32-101.7-20.34-53-23.84-97.67-68-122-115.26C-9.74 276.4-16 182.22 56.64 111.88c1.12 0-8.82 15.25-7.69 15.25l-2 6.51c-52.37 164 109 304.5 265.85 288.43 37.7-3.86 85.77-24.51 115.26-54.24"/><path class="cls-1" d="M333.13 300c39.46.27 80.68-18.18 105.1-44.07-21.36 54.21-83.19 89.05-166.11 78-69.43-9.29-135.57-79.16-142.38-149.17-5-50.95 12.77-81.36 42-118.25-10.17 19.29-14 34.17-14.92 43.66-11.12 110.21 88 189.27 176.28 189.85"/><path class="cls-1" d="M434.26 163.14c-6.13 14.07-41.45 40.64-57.05 44-61.77 13.16-101.32-16.13-122-49.46-3.08-5-8.77-18.57-9.79-22-8-27.32-4.34-68.65 19.63-90-7.22 20.34-8.28 44-4.47 59.33 2.3 9.29 9.32 25.5 16.34 35.7 12.77 18.58 20.88 23.09 37.29 33 7.39 4.44 15.32 8 18.75 9 15.56 4.58 48.41 16.65 101.37-19.39"/></g></g></svg>