<svg xmlns="http://www.w3.org/2000/svg" viewBox="0 0 2258.81 2489.17"><defs><style>.cls-1{fill:#fff}</style></defs><g id="Layer_2" data-name="Layer 2"><g id="Layer_1-2" data-name="Layer 1"><path class="cls-1" d="M1027.49 26.56c61.72-35.33 142.11-35.49 203.78 0q465.36 263 930.76 525.74c58.34 32.86 97.37 97.79 96.77 165V1772c.43 70-42.45 136.49-104 168.61q-463.8 261.49-927.44 523.21c-63 36-145 33.24-206-5.73q-139.09-80.61-278.36-160.9c-18.95-11.29-40.3-20.28-53.68-38.65 11.83-15.94 33-17.93 50.15-24.88 38.7-12.3 74.24-32.06 109.79-51.22 9-6.15 20-3.79 28.58 1.71 79.27 45.45 157.85 92.23 237.38 137.24 17 9.8 34.15-3.21 48.65-11.29q455.16-257.25 910.64-513.9c11.24-5.41 17.46-17.34 16.54-29.65q.32-521.87.11-1043.81c1.29-14-6.8-26.82-19.43-32.54q-462.22-260.31-924.23-520.92a32.1 32.1 0 0 0-36.29-.05q-462.09 260.43-924.07 521.1c-12.59 5.73-21 18.36-19.54 32.38q.08 521.88 0 1043.87a29.51 29.51 0 0 0 16.76 29.28q123.32 69.93 246.81 139.38c46.35 24.95 103.25 39.77 154.32 20.66 45.06-16.16 76.65-62.15 75.79-110 .43-345.89-.21-691.83.32-1037.66-1.13-15.35 13.44-28 28.37-26.6 39.5-.27 79.06-.53 118.56.11 16.49-.37 27.84 16.16 25.8 31.63-.16 348.08.43 696.16-.27 1044.24.11 92.77-38 193.71-123.81 239.1-105.71 54.76-236.37 43.15-340.8-9.36C279 2042.24 192.76 1989 104 1940.64 42.24 1908.7-.43 1842 0 1772V717.31c-.64-68.62 39.94-134.73 100.1-167.11q463.75-261.72 927.39-523.64z"/><path class="cls-1" d="M1297.21 757.14c134.84-8.68 279.19-5.14 400.53 61.29 93.95 50.9 146 157.74 147.69 262.11-2.62 14.08-17.34 21.84-30.78 20.88-39.12-.05-78.25.53-117.38-.27-16.6.64-26.24-14.66-28.32-29.34-11.24-49.94-38.48-99.4-85.48-123.48-72.16-36.13-155.82-34.33-234.47-33.56-57.44 3-119.2 8-167.86 41.8-37.36 25.59-48.71 77.23-35.37 118.83 12.57 29.87 47 39.5 75.26 48.39 162.5 42.5 334.7 38.27 494.1 94.2 66 22.8 130.55 67.13 153.14 136.22 29.55 92.61 16.6 203.3-49.29 277.64-53.43 61.18-131.25 94.48-208.87 112.56-103.25 23-210.41 23.61-315.27 13.39-98.6-11.24-201.21-37.15-277.32-104.33-65.09-56.52-96.88-144.57-93.72-229.57.75-14.35 15-24.36 28.79-23.18 39.4-.32 78.79-.43 118.19.05 15.74-1.13 27.4 12.47 28.21 27.3 7.27 47.58 25.15 97.52 66.64 125.73 80.07 51.66 180.54 48.12 272.23 49.57 76-3.37 161.22-4.39 223.21-54.59 32.7-28.63 42.39-76.54 33.55-117.76-9.57-34.8-46-51-77.23-61.61-160.42-50.74-334.54-32.33-493.4-89.72-64.49-22.79-126.86-65.89-151.64-132.15-34.57-93.78-18.73-209.77 54.06-281.6 71-71.45 173.43-99 270.84-108.82z"/></g></g></svg>