<svg xmlns="http://www.w3.org/2000/svg" viewBox="0 0 2206.51 1963.17"><g data-name="Layer 2"><path d="M1814.2 636.3q-35.23-12.08-71-22.38 5.94-24.12 11-48.45c53.77-261 18.61-471.27-101.44-540.49-115.1-66.38-303.36 2.83-493.49 168.28q-28.1 24.51-54.94 50.42-18-17.22-36.56-33.77C868.46 33 668.73-41.56 548.81 27.87c-115 66.57-149.06 264.25-100.65 511.6q7.22 36.74 16.31 73.08c-28.26 8-55.55 16.58-81.67 25.68C149.19 719.67 0 847.32 0 979.72c0 136.75 160.15 273.91 403.48 357.08q29.6 10.07 59.67 18.65-9.77 39.14-17.33 78.78c-46.15 243.06-10.11 436 104.59 502.21 118.46 68.31 317.28-1.9 510.89-171.14q23-20.07 46-42.44 29.06 28 59.65 54.42c187.53 161.37 372.74 226.53 487.33 160.2 118.35-68.51 156.81-275.84 106.87-528.08q-5.71-28.9-13.23-59 20.95-6.18 41-12.81c253-83.81 417.53-219.3 417.53-357.88.06-132.86-153.94-261.38-392.25-343.41zm-593.1-371.92c162.9-141.77 315.15-197.75 384.53-157.74 73.88 42.62 102.62 214.45 56.2 439.81q-4.56 22-9.92 43.87c-91.54-21.12-190.95-36.84-295-46.61-60.63-86.33-123.45-164.84-186.52-232.78q24.76-23.93 50.71-46.55zm-569.6 828.44q29.93 57.82 62.56 114.18 33.28 57.48 69.27 113.32c-72.26-8.07-140.41-19-203.35-32.69 19.49-62.92 43.49-128.31 71.53-194.81zm-.11-221.69C623.95 806 600.46 742 581.28 680.2c63-14.09 130.09-25.6 200-34.34Q746.2 700.64 713.68 757T651.4 871.13zM701.5 982q43.56-90.68 93.85-177.88 50.25-87.12 107-170.32c65.62-5 132.9-7.56 200.92-7.56 68.32 0 135.69 2.62 201.29 7.62q56.14 83 106.31 169.75 50.43 87 95.12 177-44.21 91-94.81 178.61-50.18 87.13-105.86 170.78c-65.47 4.68-133.12 7.09-202.06 7.09-68.66 0-135.45-2.14-199.78-6.31q-57.13-83.46-107.84-171.06Q745.21 1072.7 701.5 982zm791.32 224.36q33.29-57.74 64-116.91c29.49 67.22 54.35 132.26 74.1 194.1-64 14.6-133.05 26.36-205.83 35.09q34.98-55.48 67.74-112.3zm63.09-335.14q-30.59-58-63.47-114.82-32.36-55.89-67.1-110.35c70.41 8.89 137.86 20.7 201.19 35.16-19 60.93-42.7 124.66-70.61 189.99zm-451.6-492.89c43.47 47.1 87 99.69 129.85 156.75q-130.32-6.16-260.79-.06c42.87-56.53 86.78-109.02 130.94-156.69zM596 109.44c73.83-42.73 237.05 18.2 409.09 171 11 9.77 22 20 33.1 30.57-64.1 68.83-127.45 147.2-188 232.61-103.78 9.62-203.12 25.07-294.44 45.76q-8.44-33.8-15.17-68C499.19 309.43 526.73 149.56 596 109.44zM488.44 1264.65Q461 1256.8 434 1247.6c-107.59-36.78-196.45-84.57-257.35-136.71-54.72-46.87-82.36-93.4-82.36-131.17 0-80.34 119.79-182.82 319.58-252.48q37.61-13.06 75.94-23.9c27.58 89.82 63.8 183.72 107.51 278.66-44.32 96.39-81.01 191.78-108.88 282.65zm510.82 429.66c-85.61 74.84-171.4 127.92-247 154.63-67.94 24-122 24.68-154.75 5.82-69.61-40.14-98.53-195.11-59.07-403q7-36.85 16.11-73.26c90.38 20 190.42 34.37 297.35 43 61 85.9 125 164.87 189.41 234q-20.56 19.97-42.05 38.81zm107.66-106.54c-44.68-48.21-89.23-101.53-132.76-158.88q63.37 2.49 129.1 2.5 67.47 0 133.2-3c-42.97 58.44-86.36 111.83-129.54 159.38zm572.4 131.15c-13.14 70.84-39.57 118.06-72.24 137-69.54 40.25-218.25-12.07-378.62-150.07q-27.58-23.73-55.49-50.58c62.18-68 124.31-147.06 185-234.85 106.68-9.46 207.45-24.94 298.84-46.06q6.74 27.24 11.94 53.38c22.04 111.5 25.19 212.34 10.56 291.18zm80-470.79c-12.06 4-24.44 7.85-37.06 11.59-27.93-88.4-65.62-182.41-111.73-279.53 44-94.82 80.24-187.62 107.39-275.46 22.57 6.54 44.48 13.43 65.59 20.7 204.19 70.28 328.74 174.21 328.74 254.29.01 85.28-134.51 196.04-352.91 268.41z" fill="#fff" data-name="Layer 1"/></g></svg>