<svg xmlns="http://www.w3.org/2000/svg" viewBox="0 0 1766.69 2493.68"><defs><style>.cls-1{fill:#fff;}</style></defs><title>css-3</title><g id="Layer_2" data-name="Layer 2"><g id="Layer_1-2" data-name="Layer 1"><path class="cls-1" d="M415.78,0H683.65V112H527.8V224H683.66v112H415.78ZM737.23,0H1005.1V97.41H849.25v19.48H1005.1v224H737.24V238.64H893.09V219.16H737.22V0Zm321.45,0h267.87V97.41H1170.71v19.48h155.85v224H1058.68V238.64h155.85V219.16H1058.69V0Z"/><path class="cls-1" d="M0,490.07,160.78,2293.39l721.48,200.29h0l723.48-200.57,160.95-1803Zm1396.69,816.27h0l-5.39,59.39-52,582.27-3.32,37.37L883.34,2110.82v0l-1,.28L429.27,1985.37l-31-347.27h222l15.75,176.39L882.38,1881l.2-.05v0l246.68-66.58,25.68-286.84H388.41l-19.82-221.17h805.52l20.12-226.48H348.86l-20.1-221.17H1436.61Z"/></g></g></svg>