<svg xmlns="http://www.w3.org/2000/svg" viewBox="0 0 1771 2499.78"><defs><style>.cls-1{fill:#fff;}</style></defs><title>html-5</title><g id="Layer_2" data-name="Layer 2"><g id="Layer_1-2" data-name="Layer 1"><path class="cls-1" d="M164.77,0H277.44V111.32H380.51V0H493.18V337.1H380.51V224.22H277.45V337.1H164.78V0ZM641.35,111.79H542.16V0H853.27V111.79H754V337.1H641.36ZM902.64,0h117.48l72.27,118.45L1164.59,0h117.53V337.1H1169.91V170l-77.52,119.86h-1.93L1012.88,170V337.1H902.64V0Zm435.55,0h112.7V225.67h158.45V337.1H1338.19Z"/><path class="cls-1" d="M0,491.27,161.17,2299l723.25,200.78,725.24-201.06L1771,491.27Zm1434.82,429-10.1,112.4-4.45,49.83H571.85l20.26,227h808l-5.41,59.54-52.1,583.69-3.33,37.46L885.5,2116v0l-1,.28L430.32,1990.22l-31.06-348.12H621.82l15.78,176.83,246.93,66.67.21-.05v0L1132,1818.79l25.73-287.54H389.35l-54.49-611-5.31-59.48H1440.12Z"/></g></g></svg>