<svg xmlns="http://www.w3.org/2000/svg" viewBox="0 0 2206.51 1963.17"><defs><style>.cls-1{fill:#fff;}</style></defs><title>Asset 1</title><g id="Layer_2" data-name="Layer 2"><g id="Layer_1-2" data-name="Layer 1"><path class="cls-1" d="M1814.2,636.3h0q-35.23-12.08-71-22.38,5.94-24.12,11-48.45c53.77-261,18.61-471.27-101.44-540.49-115.1-66.38-303.36,2.83-493.49,168.28q-28.1,24.51-54.94,50.42-18-17.22-36.56-33.77C868.46,33,668.73-41.56,548.81,27.87c-115,66.57-149.06,264.25-100.65,511.6q7.22,36.74,16.31,73.08c-28.26,8-55.55,16.58-81.67,25.68C149.19,719.67,0,847.32,0,979.72c0,136.75,160.15,273.91,403.48,357.08q29.6,10.07,59.67,18.65-9.77,39.14-17.33,78.78c-46.15,243.06-10.11,436,104.59,502.21,118.46,68.31,317.28-1.9,510.89-171.14q23-20.07,46-42.44,29.06,28,59.65,54.42c187.53,161.37,372.74,226.53,487.33,160.2,118.35-68.51,156.81-275.84,106.87-528.08q-5.71-28.9-13.23-59,20.95-6.18,41-12.81c253-83.81,417.53-219.3,417.53-357.88C2206.51,846.85,2052.51,718.33,1814.2,636.3ZM1221.1,264.38C1384,122.61,1536.25,66.63,1605.63,106.64h0c73.88,42.62,102.62,214.45,56.2,439.81q-4.56,22-9.92,43.87c-91.54-21.12-190.95-36.84-295-46.61-60.63-86.33-123.45-164.84-186.52-232.78Q1195.15,287,1221.1,264.38Zm-569.6,828.44q29.93,57.82,62.56,114.18,33.28,57.48,69.27,113.32c-72.26-8.07-140.41-19-203.35-32.69C599.47,1224.71,623.47,1159.32,651.51,1092.82Zm-.11-221.69C623.95,806,600.46,742,581.28,680.2c63-14.09,130.09-25.6,200-34.34Q746.2,700.64,713.68,757T651.4,871.13ZM701.5,982q43.56-90.68,93.85-177.88v0Q845.6,717,902.35,633.8c65.62-5,132.9-7.56,200.92-7.56,68.32,0,135.69,2.62,201.29,7.62q56.14,83,106.31,169.75,50.43,87,95.12,177-44.21,91-94.81,178.61h0Q1361,1246.35,1305.32,1330c-65.47,4.68-133.12,7.09-202.06,7.09-68.66,0-135.45-2.14-199.78-6.31q-57.13-83.46-107.84-171.06Q745.21,1072.7,701.5,982Zm791.32,224.36q33.29-57.74,64-116.91h0c29.49,67.22,54.35,132.26,74.1,194.1-64,14.6-133.05,26.36-205.83,35.09Q1460.07,1263.16,1492.83,1206.34Zm63.09-335.14q-30.59-58-63.47-114.82-32.36-55.89-67.1-110.35c70.41,8.89,137.86,20.7,201.19,35.16C1607.53,742.14,1583.83,805.87,1555.92,871.2ZM1104.31,378.33h0c43.47,47.1,87,99.69,129.85,156.75q-130.32-6.16-260.79-.06C1016.24,478.49,1060.15,426,1104.31,378.33ZM596,109.44c73.83-42.73,237.05,18.2,409.09,171,11,9.77,22,20,33.1,30.57-64.1,68.83-127.45,147.2-188,232.61-103.78,9.62-203.12,25.07-294.44,45.76q-8.44-33.8-15.17-68h0C499.19,309.43,526.73,149.56,596,109.44ZM488.44,1264.65Q461,1256.8,434,1247.6c-107.59-36.78-196.45-84.57-257.35-136.71-54.72-46.87-82.36-93.4-82.36-131.17,0-80.34,119.79-182.82,319.58-252.48q37.61-13.06,75.94-23.9C517.39,793.16,553.61,887.06,597.32,982,553,1078.39,516.31,1173.78,488.44,1264.65Zm510.82,429.66c-85.61,74.84-171.4,127.92-247,154.63h0c-67.94,24-122,24.68-154.75,5.82-69.61-40.14-98.53-195.11-59.07-403q7-36.85,16.11-73.26c90.38,20,190.42,34.37,297.35,43,61,85.9,125,164.87,189.41,234Q1020.75,1675.47,999.26,1694.31Zm107.66-106.54c-44.68-48.21-89.23-101.53-132.76-158.88q63.37,2.49,129.1,2.5,67.47,0,133.2-3C1193.49,1486.83,1150.1,1540.22,1106.92,1587.77Zm572.4,131.15c-13.14,70.84-39.57,118.06-72.24,137-69.54,40.25-218.25-12.07-378.62-150.07q-27.58-23.73-55.49-50.58c62.18-68,124.31-147.06,185-234.85,106.68-9.46,207.45-24.94,298.84-46.06q6.74,27.24,11.94,53.38h0C1690.79,1539.24,1693.94,1640.08,1679.31,1718.92Zm80-470.79h0c-12.06,4-24.44,7.85-37.06,11.59-27.93-88.4-65.62-182.41-111.73-279.53,44-94.82,80.24-187.62,107.39-275.46,22.57,6.54,44.48,13.43,65.59,20.7,204.19,70.28,328.74,174.21,328.74,254.29C2112.26,1065,1977.74,1175.76,1759.34,1248.13Z"/></g></g></svg>